<svg xmlns="http://www.w3.org/2000/svg" viewBox="0 0 263.65 444.92"><defs><style>.cls-1{fill:#e8d3b8;}.cls-2{fill:#dde0cc;stroke:#9e001a;stroke-miterlimit:10;stroke-width:4px;}</style></defs><title>Asset 1</title><g id="Layer_2" data-name="Layer 2"><g id="Layer_1-2" data-name="Layer 1"><ellipse class="cls-1" cx="119.65" cy="99.42" rx="98" ry="94.5"/><path class="cls-1" d="M119.65,261.92c-48,0-91.59-67.87-97.34-155.65l99.75-1.22-4.41-.13,99.75,1.22c-5.75,87.78-49.75,155.78-97.75,155.78"/><path d="M55.65,70.92c36,54,127.53,18.72,136,42,14.63,40.24-1,93-8,161,2.81,11.76,8.15,34,18,35,18.78,1.81,50.57-61.53,53-121,1.2-29.48,5.45-100.43-48-138-37.86-26.61-90.78-26.86-137-4"/><path d="M201.65,246.92c-43.55,35.38-50.43,68.89-52,81-1.22,9.37-.48,25.25,1,57,1.09,23.51,4.62,59.89,7,60,4,.18,3.72-64.11,13-65s25,8,24,21c-1.37,17.83,13-35.27,19-39,4.65-2.91,14.68,13.45,12,27-4.54,22.9,37.38-77.12,38-165,.31-44.13-15.56-87.82-21-110"/><path d="M77.65,52.92c-36.58,15.1-52.23,85.36-56,119-4.93,44-3.39,99.64,28,130,6,5.77,17.79,14.89,17,16-1,1.34-20.59-9.66-31-18-65.64-52.59-21.39-204-17-219,7.4-25.34,14.45-39.13,26-51,35.07-36.05,87.84-29.83,94-29,34.63,4.63,79.61,26.66,82,56,.27,3.35,15.48,29.44,12,34-10.31,13.48-63.4-19.49-77-24-30-10-21.21-19.93-45-15C109.8,52.09,82.07,51.09,77.65,52.92Z"/><path class="cls-2" d="M43.65,133.92c31.88-6,65,2,65,2s-3.68,25-8.59,30-42.31,5.5-49.05,1S43.65,152.92,43.65,133.92Z"/><path class="cls-2" d="M190.65,133.92c-31.89-6-65,2-65,2s3.68,25,8.58,30,42.31,5.5,49.06,1S190.65,152.92,190.65,133.92Z"/><path class="cls-2" d="M108.65,142.92c4.66-.34,13.33.33,18,0"/></g></g></svg>