<?xml version="1.0" encoding="UTF-8" standalone="no"?>
<!DOCTYPE svg PUBLIC "-//W3C//DTD SVG 1.1//EN" "http://www.w3.org/Graphics/SVG/1.1/DTD/svg11.dtd">
<svg version="1.1" xmlns="http://www.w3.org/2000/svg" xmlns:xlink="http://www.w3.org/1999/xlink" preserveAspectRatio="xMidYMid meet" viewBox="0 0 640 640" width="640" height="640"><defs><path d="M172.73 27.24L467.27 27.24L467.27 428.52L172.73 428.52L172.73 27.24Z" id="a4ac6KgTW"></path><path d="M463.2 13.41C468.72 13.41 473.2 17.88 473.2 23.41C473.2 122.81 473.2 411.03 473.2 510.44C473.2 515.96 468.72 520.44 463.2 520.44C403.92 520.44 236.08 520.44 176.8 520.44C171.28 520.44 166.8 515.96 166.8 510.44C166.8 411.03 166.8 122.81 166.8 23.41C166.8 17.88 171.28 13.41 176.8 13.41C236.08 13.41 403.92 13.41 463.2 13.41Z" id="bHysSU47d"></path><clipPath id="clipb5EpX7QFmV"><use xlink:href="#bHysSU47d" opacity="1"></use></clipPath><path d="M174.71 418.64L461.34 418.64L461.34 512.53L174.71 512.53L174.71 418.64Z" id="cIzTZGgUW"></path><path d="M347.67 465.59C347.67 480.86 335.27 493.26 320 493.26C304.73 493.26 292.33 480.86 292.33 465.59C292.33 450.31 304.73 437.91 320 437.91C335.27 437.91 347.67 450.31 347.67 465.59Z" id="hdCbQzq0e"></path><path d="M174.71 22.3L461.34 22.3L461.34 43.06L174.71 43.06L174.71 22.3Z" id="h5ozu6bW8"></path><path d="M380.67 32.68C386.19 32.68 390.67 37.16 390.67 42.68C390.67 45.62 390.67 44.45 390.67 47.39C390.67 52.91 386.19 57.39 380.67 57.39C354.4 57.39 285.6 57.39 259.33 57.39C253.81 57.39 249.33 52.91 249.33 47.39C249.33 44.45 249.33 45.62 249.33 42.68C249.33 37.16 253.81 32.68 259.33 32.68C285.6 32.68 354.4 32.68 380.67 32.68Z" id="bhnP6NVL9"></path></defs><g><g><g><use xlink:href="#a4ac6KgTW" opacity="1" fill="#ffffff" fill-opacity="0.96"></use></g><g><use xlink:href="#bHysSU47d" opacity="1" fill="#000000" fill-opacity="0"></use><g clip-path="url(#clipb5EpX7QFmV)"><use xlink:href="#bHysSU47d" opacity="1" fill-opacity="0" stroke="#000000" stroke-width="30" stroke-opacity="1"></use></g></g><g><use xlink:href="#cIzTZGgUW" opacity="1" fill="#000000" fill-opacity="1"></use></g><g><use xlink:href="#hdCbQzq0e" opacity="1" fill="#ffffff" fill-opacity="0.96"></use></g><g><use xlink:href="#h5ozu6bW8" opacity="1" fill="#000000" fill-opacity="0.96"></use></g><g><use xlink:href="#bhnP6NVL9" opacity="1" fill="#000000" fill-opacity="0.96"></use></g></g></g></svg>